<svg id="Layer_1" data-name="Layer 1" xmlns="http://www.w3.org/2000/svg" viewBox="0 0 82.93 29.43"><defs><style>.cls-1{fill:#3dd984;}.cls-2{font-size:5.58px;fill:#ffb029;font-family:CaracasDemibold, Caracas;}</style></defs><path class="cls-1" d="M111.86,17.74l2-7.69H119c-.52,1.54-1,3-1.55,4.55-1.22,3.54-2.41,7.09-3.66,10.62a5.54,5.54,0,0,1-5.68,4c-1.1,0-2.21,0-3.31,0-.51,0-.75-.14-.73-.7,0-.94,0-1.89,0-2.93,1.19-.05,2.31-.12,3.43-.15a1.72,1.72,0,0,0,1.76-2.51L104.61,10.5c0-.11-.06-.24-.11-.45,1.66,0,3.26,0,4.86,0,.17,0,.42.34.48.57.6,2.08,1.17,4.16,1.75,6.25C111.65,17.11,111.73,17.32,111.86,17.74Z" transform="translate(-36.07 -1)"/><path class="cls-1" d="M64.28,13.8l-1.39-.09c0-1.1,0-2.19,0-3.29,0-.13.27-.31.45-.36a4.63,4.63,0,0,1,.9-.09V7h4.53V10c.74,0,1.38,0,2,0,.22,0,.59.28.6.45.06,1,0,2.09,0,3.24H68.84c0,1.39-.06,2.69,0,4,0,.72.87,1.06,1.77.83.26-.07.51-.18.87-.3l.55,3.25a6.65,6.65,0,0,1-5.08,1,3.81,3.81,0,0,1-2.69-3.78C64.27,17.1,64.28,15.48,64.28,13.8Z" transform="translate(-36.07 -1)"/><path class="cls-1" d="M102.61,10v3.72c-.62,0-1.23,0-1.83,0s-.79.16-.76.74c0,.87,0,1.74,0,2.62,0,1.33.75,1.83,2,1.38l.65-.23c.18,1,.38,1.94.52,2.91a.66.66,0,0,1-.29.54,6.46,6.46,0,0,1-4.63.82,3.63,3.63,0,0,1-2.71-3.25c-.06-1.49-.06-3-.09-4.47,0-.32,0-.65-.06-1l-1.24-.09c0-1.1,0-2.19,0-3.29,0-.13.35-.37.52-.36.65,0,.78-.31.76-.85a11.6,11.6,0,0,1,0-1.77.79.79,0,0,1,.53-.52c1.13,0,2.26,0,3.4,0,.39,0,.55.15.55.54,0,.64,0,1.29,0,1.93s.2.69.68.68S101.93,10,102.61,10Z" transform="translate(-36.07 -1)"/><path class="cls-1" d="M85.42,22.35H81V5.08h4.44Z" transform="translate(-36.07 -1)"/><path class="cls-1" d="M87.91,22.34V10.09h4.48V22.34Z" transform="translate(-36.07 -1)"/><path class="cls-1" d="M78.35,22.35H73.92c0-.23,0-.48,0-.72,0-3.57,0-7.14,0-10.72,0-.66.16-.92.86-.89,1,.06,2,0,3,0,.46,0,.7.13.7.66,0,3.78,0,7.56,0,11.34A3,3,0,0,1,78.35,22.35Z" transform="translate(-36.07 -1)"/><path class="cls-1" d="M76.21,4.85A2.27,2.27,0,0,1,78.56,7a2.29,2.29,0,0,1-2.47,2.16A2.18,2.18,0,0,1,73.85,7,2.16,2.16,0,0,1,76.21,4.85Z" transform="translate(-36.07 -1)"/><path class="cls-1" d="M92.47,7A2.2,2.2,0,0,1,90.2,9.12,2.32,2.32,0,0,1,87.75,7a2.24,2.24,0,0,1,2.33-2.16A2.16,2.16,0,0,1,92.47,7Z" transform="translate(-36.07 -1)"/><path class="cls-1" d="M58.91,3.7h.9l-.6,1h.6l-2,2.43s0,0,0,0l.92-1.78H58Z" transform="translate(-36.07 -1)"/><path class="cls-1" d="M57.46,7.22c0,.1.23,1,1.13-.3,0,0,1,0,.45.83s-1.63,1.88-2.53,2-3,.11-3.56-3.24a5.37,5.37,0,0,1,.2-2.67A4.17,4.17,0,0,1,57.48,1c4.8,0,4.57,4.89,4.57,4.89a4.27,4.27,0,0,1-1,2.74,8.11,8.11,0,0,0-1.1,3.3.44.44,0,0,1-.45.38H55.33a.57.57,0,0,1-.48-.9v0a.49.49,0,0,1,.37-.18l3.4,0a.4.4,0,0,0,.39-.32,9,9,0,0,1,1.22-3.12c1.06-1.6.79-2.36.79-2.36a3.47,3.47,0,0,0-1.87-3A3.83,3.83,0,0,0,56,2.34a3,3,0,0,0-2.05,3.3c.21,2,1.05,2.69,1.64,2.89a1.07,1.07,0,0,0,1-.21,4.84,4.84,0,0,0,.91-1.1Z" transform="translate(-36.07 -1)"/><rect class="cls-1" x="18.89" y="11.52" width="4.72" height="1" rx="0.42"/><path class="cls-1" d="M55.82,13.77h3.4l0,0v.4a.06.06,0,0,1-.05.06h-.74a.11.11,0,0,0-.09.05c-.09.17-.41.7-.84.72s-.72-.55-.79-.72a.1.1,0,0,0-.08,0h-.77a.08.08,0,0,1-.08-.07v-.4Z" transform="translate(-36.07 -1)"/><path class="cls-1" d="M50.89,2.86S37.64-.15,36.08,14.4a11.76,11.76,0,0,0,2.11,7.17c2.46,3.56,2.86,2.86,4.17,3,0,0,2-.9,1.65-4.86S40.6,7.32,50.89,2.86Z" transform="translate(-36.07 -1)"/><path class="cls-1" d="M45.37,19.46l-1.89,6.08s7.36,1.85,9.39-7.43A23.67,23.67,0,0,1,45.37,19.46Z" transform="translate(-36.07 -1)"/><path class="cls-1" d="M59.82,15a.84.84,0,0,1,1,.11c.33.33.58,1,.25,2.32a12.81,12.81,0,0,1-6.89,8.81c-4.52,2.21-8.88.85-9.33.45,0,0,5.66-.7,7.22-3.61a14.71,14.71,0,0,0,1.47-6.88,1.17,1.17,0,0,1,.47-1,1.14,1.14,0,0,1,1.47.17C56.64,16.22,58.92,15.49,59.82,15Z" transform="translate(-36.07 -1)"/><text class="cls-2" transform="translate(27.55 28.02)">S</text><text class="cls-2" transform="translate(31.27 28.02)">A</text><text class="cls-2" transform="translate(35.24 28.02)">V</text><text class="cls-2" transform="translate(39.26 28.02)">I</text><text class="cls-2" transform="translate(41.21 28.02)">N</text><text class="cls-2" transform="translate(45.38 28.02)">G</text><text class="cls-2" transform="translate(49.55 28.02)">S</text><text class="cls-2" transform="translate(54.61 28.02)">H</text><text class="cls-2" transform="translate(58.58 28.02)">U</text><text class="cls-2" transform="translate(62.63 28.08)">B</text></svg>