<svg id="Layer_1" data-name="Layer 1" xmlns="http://www.w3.org/2000/svg" width="70.23" height="70.11" viewBox="0 0 70.23 70.11">
  <defs>
    <style>
      .cls-1 {
        fill: #3dd984;
      }
    </style>
  </defs>
  <g>
    <path class="cls-1" d="M4.38,6.17A15.58,15.58,0,0,1,4.94,4.5,6.15,6.15,0,0,1,10.59.72c2.06-.07,4.12,0,6.17,0,.82,0,1.23.37,1.22,1.06s-.4,1-1.2,1H11A4.3,4.3,0,0,0,6.44,7.28V23.16A4.29,4.29,0,0,0,11,27.68c1.14,0,2.28,0,3.43,0a1.64,1.64,0,0,1,1.5.74c1.27,1.73,2.57,3.44,3.86,5.15a1.79,1.79,0,0,0,.17.15l.73-1c1.07-1.42,2.15-2.83,3.2-4.28a1.78,1.78,0,0,1,1.61-.8q21.23,0,42.44,0a4.49,4.49,0,0,0,3.51-1.4,4.14,4.14,0,0,0,1.14-2.93c0-5.42,0-10.85,0-16.28A4.28,4.28,0,0,0,68,2.76h-45c-.25,0-.51,0-.76,0a.91.91,0,0,1-.91-1,.92.92,0,0,1,.87-1,3.84,3.84,0,0,1,.68,0h45a6.34,6.34,0,0,1,6.75,5.43.54.54,0,0,0,.1.18v17.8c-.1.35-.18.7-.28,1.05a6.25,6.25,0,0,1-5.86,4.55c-4.87,0-9.74,0-14.61,0q-13.84,0-27.7,0a1.24,1.24,0,0,0-1.13.57c-1.36,1.86-2.75,3.69-4.14,5.53-.67.89-1.37.89-2,0-1.41-1.87-2.81-3.77-4.25-5.62a1.35,1.35,0,0,0-.88-.45c-1.24-.06-2.48.05-3.7-.07a6.31,6.31,0,0,1-5.5-4.91c0-.18-.1-.35-.15-.53Z" transform="translate(-4.38 -0.68)"/>
    <path class="cls-1" d="M4.38,54c.27-1.15.45-2.32.82-3.44A15.41,15.41,0,1,1,21.57,70.67a3.74,3.74,0,0,0-.45.12H18.51c-.15,0-.3-.09-.45-.12A15.14,15.14,0,0,1,5.21,60.26a28.11,28.11,0,0,1-.83-3.43ZM29.92,64A13.33,13.33,0,0,0,10,46.39,13.13,13.13,0,0,0,9.7,64a10.62,10.62,0,0,1,6.15-6.83c-2.87-3.56-3-6.8-.45-9.34a6.23,6.23,0,0,1,8.31-.42,6,6,0,0,1,2.22,3.74,6.3,6.3,0,0,1-2.24,6A10.74,10.74,0,0,1,29.92,64Zm-10.48,4.7a14,14,0,0,0,8.27-2.58.78.78,0,0,0,.38-.85,8.44,8.44,0,0,0-16.55-.16.89.89,0,0,0,.4,1A13.39,13.39,0,0,0,19.44,68.74ZM15.63,52.27a4.18,4.18,0,1,0,4.14-4.2A4.17,4.17,0,0,0,15.63,52.27Z" transform="translate(-4.38 -0.68)"/>
    <path class="cls-1" d="M74.62,66.55c-.09.21-.18.41-.26.62a3.12,3.12,0,0,1-2.82,2.14c-.3,0-.6,0-.89,0H52a4.84,4.84,0,0,1-.76,0,.87.87,0,0,1-.79-1,.9.9,0,0,1,.79-1,4.5,4.5,0,0,1,.82,0H70.78c1.31,0,1.94-.62,1.81-1.73a1.34,1.34,0,0,0-1.24-1.25c-.2,0-.41,0-.61,0H43.31c-1.11,0-1.59.31-1.79,1.12a1.43,1.43,0,0,0,1.34,1.87c1.11,0,2.24,0,3.36,0,.71,0,1.07.34,1.11,1a.9.9,0,0,1-.9,1.06,35.26,35.26,0,0,1-4.24-.06c-1.66-.16-2.74-1.71-2.7-3.58a3.3,3.3,0,0,1,2.79-3.37,8.46,8.46,0,0,1,1.23-.07H70.32c2.65,0,3.3.43,4.3,2.81Z" transform="translate(-4.38 -0.68)"/>
    <path class="cls-1" d="M56.89,48.54c-4.64,0-9.28,0-13.92,0a3.55,3.55,0,0,1-3.35-5,3.1,3.1,0,0,1,2.7-2,11.13,11.13,0,0,1,1.16,0H70.36a7.37,7.37,0,0,1,1.7.16,3.42,3.42,0,0,1,2.41,3.76,3.24,3.24,0,0,1-3,3.15c-1.6.08-3.2,0-4.8,0Zm0-2.06H70.41a7.49,7.49,0,0,0,.82,0,1.33,1.33,0,0,0,1.22-1.19c.16-1.11-.48-1.78-1.75-1.78H43.09a3.41,3.41,0,0,0-.55.05,1.27,1.27,0,0,0-1.14,1c-.32,1.13.37,1.94,1.67,1.94C47.66,46.49,52.25,46.48,56.84,46.48Z" transform="translate(-4.38 -0.68)"/>
    <path class="cls-1" d="M56.92,58.94c-4.61,0-9.23,0-13.85,0a3.57,3.57,0,0,1-3.31-5.21,3.07,3.07,0,0,1,2.59-1.87,8.77,8.77,0,0,1,1-.05H63.61a5.23,5.23,0,0,1,.68,0,.91.91,0,0,1,.86,1,.88.88,0,0,1-.86,1,6.44,6.44,0,0,1-.76,0h-20a5.94,5.94,0,0,0-1,.06,1.37,1.37,0,0,0-1.07,1.47,1.39,1.39,0,0,0,1.11,1.43,2,2,0,0,0,.41,0H71.05a1.36,1.36,0,0,0,1.39-.9,1.47,1.47,0,0,0-1.28-2.08c-.56,0-1.14,0-1.71,0s-1-.38-1-1a.93.93,0,0,1,1-1,15,15,0,0,1,2.12,0,3.31,3.31,0,0,1,3,3.56,3.27,3.27,0,0,1-3.08,3.46c-2,.08-4,0-6,0C62.64,59,59.78,58.94,56.92,58.94Z" transform="translate(-4.38 -0.68)"/>
    <path class="cls-1" d="M53.61,21.4c.18-1.07.41-2.25.56-3.45a1.06,1.06,0,0,0-.27-.81c-.75-.8-1.55-1.55-2.34-2.3a1.43,1.43,0,0,1-.48-1.54,1.38,1.38,0,0,1,1.26-1c1.11-.15,2.22-.3,3.32-.51a1.1,1.1,0,0,0,.69-.5c.53-1,1-2,1.47-2.93a1.43,1.43,0,0,1,2.69,0c.47,1,.94,2,1.47,2.93a1.11,1.11,0,0,0,.68.5c1.1.21,2.21.36,3.32.52a1.41,1.41,0,0,1,.8,2.52c-.8.78-1.62,1.54-2.39,2.35a1,1,0,0,0-.24.75c.15,1.09.34,2.16.54,3.24a1.44,1.44,0,0,1-2.2,1.6c-.94-.51-1.88-1-2.85-1.48a1.25,1.25,0,0,0-.93,0c-1,.49-2,1.07-3,1.57A1.4,1.4,0,0,1,53.61,21.4Zm10.87-7.23c-1-.16-1.9-.3-2.79-.42a1.59,1.59,0,0,1-1.3-1c-.38-.8-.78-1.58-1.22-2.48-.45.89-.85,1.68-1.23,2.48a1.59,1.59,0,0,1-1.31,1c-.89.12-1.77.27-2.68.41.63.65,1.18,1.28,1.79,1.86a1.79,1.79,0,0,1,.57,1.85c-.17.8-.28,1.62-.43,2.56.87-.45,1.6-.81,2.31-1.22a1.77,1.77,0,0,1,1.94,0c.72.41,1.47.77,2.34,1.23-.17-1-.3-1.77-.45-2.57A1.8,1.8,0,0,1,62.6,16C63.23,15.46,63.8,14.84,64.48,14.17Z" transform="translate(-4.38 -0.68)"/>
    <path class="cls-1" d="M14.25,21.45c.19-1.09.41-2.27.57-3.47a1.22,1.22,0,0,0-.29-.86c-.75-.8-1.56-1.54-2.34-2.31a1.36,1.36,0,0,1-.45-1.54,1.44,1.44,0,0,1,1.28-1c1.07-.14,2.12-.34,3.19-.45a1,1,0,0,0,.89-.69c.44-.95.93-1.88,1.38-2.82a1.43,1.43,0,0,1,2.66,0c.49,1,1,2,1.5,3a1,1,0,0,0,.63.47c1.13.21,2.26.37,3.39.53a1.41,1.41,0,0,1,.8,2.49c-.8.78-1.63,1.54-2.4,2.35a1.12,1.12,0,0,0-.25.81c.13,1,.32,2.07.51,3.1A1.47,1.47,0,0,1,23,22.73c-.9-.5-1.82-.95-2.71-1.45a.93.93,0,0,0-1,0c-1,.56-2,1.1-3,1.59A1.4,1.4,0,0,1,14.25,21.45Zm2.27-1c.86-.45,1.58-.79,2.26-1.19a1.84,1.84,0,0,1,2.06,0c.69.41,1.42.75,2.26,1.18a20.64,20.64,0,0,0-.36-2.16,2.21,2.21,0,0,1,.86-2.58c.53-.43,1-.95,1.55-1.5-1-.16-1.89-.3-2.75-.4A1.68,1.68,0,0,1,21,12.71c-.37-.78-.76-1.54-1.19-2.41-.42.83-.82,1.54-1.14,2.29A1.87,1.87,0,0,1,17,13.81c-.8.09-1.6.22-2.48.35.64.65,1.18,1.26,1.79,1.8a1.87,1.87,0,0,1,.62,2C16.79,18.69,16.68,19.48,16.52,20.43Z" transform="translate(-4.38 -0.68)"/>
    <path class="cls-1" d="M47.63,14a3.6,3.6,0,0,1-.51.84c-.72.76-1.47,1.5-2.25,2.2a1.13,1.13,0,0,0-.39,1.2c.21,1,.36,2.06.54,3.09a1.36,1.36,0,0,1-.52,1.46,1.42,1.42,0,0,1-1.61.07c-1-.5-1.91-1-2.85-1.51a1,1,0,0,0-1.07,0c-.93.53-1.9,1-2.84,1.5A1.43,1.43,0,0,1,34,21.19c.2-1,.34-2.06.54-3.09a1,1,0,0,0-.31-1c-.79-.72-1.54-1.5-2.32-2.24a1.42,1.42,0,0,1-.47-1.54,1.39,1.39,0,0,1,1.27-1c1.11-.15,2.21-.31,3.31-.51a1.12,1.12,0,0,0,.69-.51c.52-1,1-1.95,1.47-2.94a1.43,1.43,0,0,1,2.69,0c.46.94.94,1.87,1.38,2.82a1,1,0,0,0,.85.65c1.11.12,2.21.31,3.32.49A1.43,1.43,0,0,1,47.63,14Zm-13.34.2c.63.67,1.19,1.3,1.79,1.89a1.71,1.71,0,0,1,.57,1.71c-.18.86-.29,1.72-.45,2.68.87-.46,1.65-.84,2.4-1.26a1.65,1.65,0,0,1,1.75,0c.78.43,1.58.83,2.44,1.27-.13-.73-.18-1.39-.36-2a2.33,2.33,0,0,1,.89-2.77,18.58,18.58,0,0,0,1.51-1.47c-1-.14-1.76-.27-2.55-.35a1.9,1.9,0,0,1-1.67-1.22c-.31-.74-.7-1.45-1.12-2.3-.46.94-.86,1.73-1.24,2.52a1.57,1.57,0,0,1-1.26.94C36.09,13.87,35.2,14,34.29,14.15Z" transform="translate(-4.38 -0.68)"/>
  </g>
</svg>
