<svg id="Layer_1" data-name="Layer 1" xmlns="http://www.w3.org/2000/svg" width="69.97" height="70.11" viewBox="0 0 69.97 70.11">
  <defs>
    <style>
      .cls-1 {
        fill: #3dd984;
      }
    </style>
  </defs>
  <g>
    <path class="cls-1" d="M59.3,70.79H58.07c-.77-.32-1.55-.62-2.32-1a22,22,0,0,1-12-12.7c-.16-.42-.3-.85-.43-1.2l-5.61.91c0,1.87,0,3.77,0,5.66a1.17,1.17,0,1,1-2.32,0c0-.7,0-1.41,0-2.12V56.83l-5.85-1v1.85a3.51,3.51,0,0,1-3.72,3.74c-1.3,0-2.6,0-3.89,0a1,1,0,0,0-1.06.59,3.42,3.42,0,0,1-4.12,1.55,3.5,3.5,0,1,1,4.17-5.05c.14.23.41.55.63.55,1.48,0,3,0,4.44,0a1.14,1.14,0,0,0,1.21-1.28c0-.82,0-1.64,0-2.46a.9.9,0,0,0-.42-.64A24.55,24.55,0,0,1,14.12,42.06a.67.67,0,0,0-.71-.48c-.78,0-1.55,0-2.33,0-.95,0-1.37.43-1.37,1.39,0,1.36,0,2.73,0,4.1a.76.76,0,0,0,.48.78,3.45,3.45,0,0,1,1.76,3.93,3.49,3.49,0,0,1-6.76.05,3.44,3.44,0,0,1,1.76-4,.73.73,0,0,0,.45-.78c0-1.37,0-2.74,0-4.11a3.5,3.5,0,0,1,3.68-3.71h1.89L12,33.4H6.53c-.92,0-1.47-.43-1.48-1.15s.53-1.18,1.5-1.18H12l1-5.86H11a3.48,3.48,0,0,1-3.61-3.62c0-1.35,0-2.7,0-4a.93.93,0,0,0-.56-1,3.44,3.44,0,0,1-1.53-4.3A3.5,3.5,0,0,1,12,13a3.57,3.57,0,0,1-1.74,3.6c-.24.13-.53.42-.53.64-.05,1.46,0,2.93,0,4.39A1.16,1.16,0,0,0,11,22.87c.79,0,1.59,0,2.39,0a.64.64,0,0,0,.71-.45A24.28,24.28,0,0,1,26.75,9.77a.66.66,0,0,0,.46-.72c0-.78,0-1.55,0-2.33,0-.94-.43-1.36-1.39-1.37-1.3,0-2.6,0-3.89,0A1,1,0,0,0,20.86,6a3.44,3.44,0,0,1-4.25,1.51,3.49,3.49,0,0,1-2.15-4A3.66,3.66,0,0,1,17.21.68h1.37A3.82,3.82,0,0,1,21,2.58c.17.39.42.44.79.44,1.37,0,2.73,0,4.09,0a3.49,3.49,0,0,1,3.7,3.67V8.6l5.85-1V7c0-1.6,0-3.19,0-4.79A1.52,1.52,0,0,1,36.21.68h.68a1.55,1.55,0,0,1,.82,1.58c0,.82,0,1.65,0,2.47v2.9l5.84,1c0-.66,0-1.32,0-2A3.48,3.48,0,0,1,47.19,3C48.6,3,50,3,51.42,3c.19,0,.5-.08.56-.21A4,4,0,0,1,54.52.68h1.37l.62.26a3.5,3.5,0,0,1-.6,6.68,3.55,3.55,0,0,1-3.81-1.8.9.9,0,0,0-.62-.45c-1.43,0-2.87,0-4.3,0-.87,0-1.28.45-1.3,1.33,0,.7,0,1.41,0,2.12a.89.89,0,0,0,.64,1A24.13,24.13,0,0,1,58.13,20.66c.39.73.6,1.77,1.21,2.12s1.69.1,2.55.09c1.08,0,1.47-.4,1.48-1.5,0-1.32,0-2.64,0-4a.76.76,0,0,0-.47-.79,3.47,3.47,0,0,1-1.77-4,3.5,3.5,0,0,1,6.76,0,3.45,3.45,0,0,1-1.74,4,.74.74,0,0,0-.46.79c0,1.42,0,2.83,0,4.25a3.5,3.5,0,0,1-3.61,3.57h-2c.26,1.6.54,3.15.75,4.7a.75.75,0,0,0,.68.76c3.25.66,6.49,1.43,9.76,2a4.05,4.05,0,0,1,3.72,3V51.21a3.74,3.74,0,0,0-.12.45A22,22,0,0,1,68.71,65,24,24,0,0,1,59.3,70.79ZM48.21,32.33a52,52,0,0,0,10.26-2.51A21.9,21.9,0,0,0,43,11,22.21,22.21,0,0,0,20,47a21.81,21.81,0,0,0,22.7,6.48l-.4-4.88h-.72c-4,0-7.93,0-11.89,0a4.62,4.62,0,0,1-4.77-4.47c-.06-4.81-.05-9.63,0-14.44a4.56,4.56,0,0,1,3.83-4.37l.81-.16c0-1.61,0-3.18,0-4.75a7,7,0,0,1,13.81-1.32,11.82,11.82,0,0,1,.18,2.38c0,1.23,0,2.46,0,3.7l.39.07a4.7,4.7,0,0,1,4.28,5.05ZM42.36,46.26v-.82c0-3,0-6.06,0-9.1a3.52,3.52,0,0,1,3-3.58l.57-.11c0-.87,0-1.71,0-2.55a2.36,2.36,0,0,0-2.57-2.55q-6.76,0-13.52,0a2.37,2.37,0,0,0-2.58,2.6q0,6.75,0,13.49a2.37,2.37,0,0,0,2.63,2.62c3.43,0,6.87,0,10.31,0Zm30.23-2.72h.1V37.11c0-1.77-.14-1.94-1.87-2.17a2.48,2.48,0,0,1-.27,0,55.15,55.15,0,0,1-10.26-2.2,4.52,4.52,0,0,0-3.2,0A58.86,58.86,0,0,1,46.1,35c-1.12.17-1.41.49-1.41,1.61,0,4.22-.08,8.44,0,12.66.2,8.5,4.16,14.66,11.84,18.31,2.6,1.24,1.66,1.24,4.29,0,6.92-3.24,10.93-8.7,11.71-16.34A76.61,76.61,0,0,0,72.59,43.54ZM41.16,25.19c0-1.75.09-3.43,0-5.11A4.62,4.62,0,0,0,32,19.8c-.18,1.62-.08,3.27-.11,4.91a4.49,4.49,0,0,0,.06.48ZM9.7,50.93a1.17,1.17,0,0,0-1.17-1.17A1.18,1.18,0,0,0,7.38,51a1.16,1.16,0,0,0,2.32,0ZM19,4.16A1.15,1.15,0,0,0,17.83,3,1.2,1.2,0,0,0,16.7,4.17a1.18,1.18,0,0,0,1.18,1.17A1.13,1.13,0,0,0,19,4.16ZM55.18,3A1.19,1.19,0,0,0,54,4.22a1.16,1.16,0,0,0,1.21,1.12,1.13,1.13,0,0,0,1.1-1.15A1.15,1.15,0,0,0,55.18,3ZM8.56,12.37a1.18,1.18,0,0,0-1.18,1.17,1.16,1.16,0,0,0,2.32,0A1.17,1.17,0,0,0,8.56,12.37Zm56,2.31a1.15,1.15,0,0,0,1.16-1.16,1.19,1.19,0,0,0-1.13-1.15,1.16,1.16,0,0,0-1.18,1.15A1.12,1.12,0,0,0,64.53,14.68ZM17.84,59.13a1.15,1.15,0,0,0-1.13,1.19,1.21,1.21,0,0,0,1.15,1.13A1.17,1.17,0,0,0,19,60.27,1.11,1.11,0,0,0,17.84,59.13Z" transform="translate(-5.05 -0.68)"/>
    <path class="cls-1" d="M33.05,35.71a3.49,3.49,0,1,1,5.26,3,1,1,0,0,0-.61,1.12,2.62,2.62,0,0,1,0,.74,1.17,1.17,0,0,1-1.19,1,1.09,1.09,0,0,1-1.09-1.1,2,2,0,0,0-1.09-2.11A2.93,2.93,0,0,1,33.05,35.71Zm3.47-1.13a1.16,1.16,0,0,0,0,2.31,1.16,1.16,0,1,0,0-2.31Z" transform="translate(-5.05 -0.68)"/>
    <path class="cls-1" d="M70.48,45a62.18,62.18,0,0,1-.42,7.37A17,17,0,0,1,60,65.46a2.87,2.87,0,0,1-2.57,0c-6.55-3.2-10-8.46-10.34-15.74-.14-3.28,0-6.57,0-9.86a2.92,2.92,0,0,1,2.54-3c2.72-.57,5.41-1.24,8.12-1.8a5,5,0,0,1,2,0c2.74.57,5.45,1.24,8.19,1.82a2.91,2.91,0,0,1,2.49,3c0,1.73,0,3.46,0,5.2Zm-21.13.1h.1a52.4,52.4,0,0,0,0,5.88,14.76,14.76,0,0,0,8.75,12.25,1.15,1.15,0,0,0,.89,0c5.1-2.47,8.2-6.52,8.73-12.17.35-3.69.13-7.43.17-11.15,0-.51-.25-.69-.73-.79-2.72-.6-5.44-1.25-8.17-1.86a2.56,2.56,0,0,0-1.06.07c-2.61.58-5.22,1.23-7.84,1.76-.7.15-.9.42-.89,1.08C49.37,41.84,49.35,43.48,49.35,45.12Z" transform="translate(-5.05 -0.68)"/>
    <path class="cls-1" d="M56.3,51.51l4.21-5.06c.22-.26.43-.53.66-.78A1.18,1.18,0,1,1,63,47.14c-1.2,1.46-2.42,2.91-3.63,4.36-.64.77-1.27,1.54-1.92,2.31a1.23,1.23,0,0,1-2.08.09c-.29-.28-.58-.57-.86-.87a1.19,1.19,0,0,1-.13-1.71,1.15,1.15,0,0,1,1.7,0Z" transform="translate(-5.05 -0.68)"/>
  </g>
</svg>
